<svg width="80" height="80" viewBox="0 0 80 80" fill="none" xmlns="http://www.w3.org/2000/svg">
    <path fill-rule="evenodd" clip-rule="evenodd" d="M78.913 70.6399C78.913 72.9089 78.157 74.7649 76.576 76.3459C74.995 77.9269 73.139 78.6829 70.87 78.6829L40.835 79.0769C40.381 79.0889 39.922 79.0949 39.456 79.0949C34.026 79.0949 28.939 78.0639 24.059 76.0019C19.178 73.9399 15.054 71.1219 11.479 67.5469C7.905 63.9729 5.155 59.8479 3.093 54.9679C1.031 50.0869 0 44.9999 0 39.5699C0 34.0709 1.031 28.9149 3.093 24.1719C5.155 19.3609 7.973 15.2359 11.548 11.6619C15.122 8.08691 19.247 5.26891 24.127 3.20691C29.008 1.14491 34.095 0.112915 39.525 0.112915C40.006 0.112915 40.483 0.121916 40.955 0.138916H40.956L71.093 0.800919C73.354 0.804919 75.205 1.56091 76.782 3.13791C78.363 4.71891 79.119 6.57491 79.119 8.84291V73.0459L78.913 70.6399ZM18.9423 11.5612C16.1493 15.8728 16.5245 21.5077 19.8645 25.4109C20.1493 25.1804 20.4205 24.9431 20.7188 24.7261C22.294 23.5501 23.9787 22.5284 25.7497 21.6751C25.671 21.5802 25.5873 21.4896 25.4988 21.4039C23.8499 19.9607 23.4033 17.5763 24.4183 15.6342C25.4331 13.6921 27.6457 12.6974 29.7719 13.2271C31.8982 13.7569 33.3854 15.6734 33.3705 17.8646C33.3691 18.1766 33.3372 18.4877 33.2756 18.7935V19.1257C35.5581 18.641 37.885 18.3957 40.2185 18.3935H40.2795V17.8511C40.2718 12.7139 36.8864 8.19362 31.9589 6.74106C27.0314 5.28851 21.7354 7.24969 18.9423 11.5612ZM11.4775 45.1411C11.3845 46.058 11.688 46.971 12.3114 47.6497C12.9201 48.3445 13.7948 48.7486 14.7184 48.7617H15.7354C16.4638 52.5853 18.2814 56.117 20.9697 58.9319C21.1011 59.0704 21.1986 59.2374 21.2545 59.42L24.7666 70.9463C25.0767 71.9852 26.035 72.6949 27.1192 72.6888H30.6517C31.7635 72.7026 32.748 71.9732 33.0587 70.9056L34.313 66.5867C34.3638 66.4239 34.5154 66.3137 34.6859 66.3154H34.7605C38.3438 67.0038 42.0254 67.0038 45.6087 66.3154H45.6832C45.8538 66.3137 46.0053 66.4239 46.0562 66.5867L47.3105 70.9191C47.6212 71.9644 48.5794 72.6832 49.67 72.6888H53.2092C54.2901 72.6896 55.2437 71.9814 55.5551 70.9463L58.179 62.3016C58.285 61.9593 58.5315 61.6783 58.857 61.5287C62.9503 59.7327 66.7456 57.3229 70.112 54.3824C71.1977 53.4183 71.8215 52.0375 71.8274 50.5856V43.6156C71.8237 41.6288 70.214 40.019 68.2272 40.0153H66.0033C64.4287 38.5808 63.0597 36.9358 61.9352 35.1268C61.7521 34.8353 61.5623 34.5505 61.3657 34.2658C61.6424 32.4549 62.5101 30.7863 63.8336 29.5197C64.3985 28.9401 64.5733 28.0844 64.2811 27.3297C63.9877 26.5634 63.2872 26.0282 62.4708 25.9465C62.0188 25.9104 61.5668 25.8923 61.1148 25.8923C58.8456 25.8482 56.6087 26.4351 54.6534 27.5873C54.5633 27.6414 54.4601 27.6696 54.355 27.6687C54.2429 27.6682 54.1328 27.6378 54.0363 27.5806C49.8314 25.1426 45.0518 23.8716 40.1913 23.899C27.9329 23.899 17.505 31.7232 15.7286 42.2053H14.8676C13.1525 42.1714 11.689 43.4387 11.4775 45.1411ZM54.4293 44.9686C53.3829 44.5352 52.7007 43.5141 52.7007 42.3816C52.7044 40.8366 53.9559 39.5851 55.5009 39.5814C56.6334 39.5814 57.6545 40.2636 58.0879 41.31C58.5214 42.3563 58.2817 43.5608 57.4809 44.3616C56.6801 45.1624 55.4757 45.4021 54.4293 44.9686Z" fill="#C6CCFF"/>
    </svg>
    